<svg id="wysi-svg-icons" xmlns="http://www.w3.org/2000/svg">
  <defs>
    <symbol id="wysi-highlight" viewBox="0 0 24 24">
      <path d="M14.962 6.1H17.172V18H14.962V6.1ZM8.808 18H6.598V6.1H8.808V18ZM15.132 12.9H8.621V11.013H15.132V12.9Z"/>
    </symbol>
    <symbol id="wysi-bold" viewBox="0 0 24 24">
      <path d="M16.5,9.5A3.5,3.5,0,0,0,13,6H8.5a1,1,0,0,0-1,1V17a1,1,0,0,0,1,1H13a3.49,3.49,0,0,0,2.44-6A3.5,3.5,0,0,0,16.5,9.5ZM13,16H9.5V13H13a1.5,1.5,0,0,1,0,3Zm0-5H9.5V8H13a1.5,1.5,0,0,1,0,3Z"/>
    </symbol>
    <symbol id="wysi-italic" viewBox="0 0 24 24">
      <path d="M17,6H11a1,1,0,0,0,0,2h1.52l-3.2,8H7a1,1,0,0,0,0,2h6a1,1,0,0,0,0-2H11.48l3.2-8H17a1,1,0,0,0,0-2Z"/>
    </symbol>
    <symbol id="wysi-underline" viewBox="0 0 24 24">
      <path d="M12,15.5a5,5,0,0,0,5-5v-5a1,1,0,0,0-2,0v5a3,3,0,0,1-6,0v-5a1,1,0,0,0-2,0v5A5,5,0,0,0,12,15.5Zm5,2H7a1,1,0,0,0,0,2H17a1,1,0,0,0,0-2Z"/>
    </symbol>
    <symbol id="wysi-strike" viewBox="0 0 24 24">
      <path d="M12 6C9.33 6 7.5 7.34 7.5 9.5c0 .58.12 1.07.35 1.5H13c-1.49-.34-3.49-.48-3.5-1.5 0-1.03 1.08-1.75 2.5-1.75s2.5.83 2.5 1.75h2C16.5 7.4 14.67 6 12 6zm-5.5 6c-.67 0-.67 1 0 1h4.35c.5.17 1.04.34 1.65.5.58.15 1.75.23 1.75 1s-.66 1.75-2.25 1.75-2.5-1.01-2.5-1.75h-2c0 1.64 1.33 3.5 4.5 3.5s4.5-2.08 4.5-3.5c0-.58-.05-1.07-.2-1.5h1.2c.67 0 .67-1 0-1z"/>
    </symbol>
    <symbol id="wysi-ul" viewBox="0 0 24 24">
      <path d="M3 6a1 1 0 0 0-1 1 1 1 0 0 0 1 1 1 1 0 0 0 1-1 1 1 0 0 0-1-1zm4 0a1 1 0 0 0 0 2h14a1 1 0 0 0 0-2H7zm-4 5a1 1 0 0 0-1 1 1 1 0 0 0 1 1 1 1 0 0 0 1-1 1 1 0 0 0-1-1zm4 0a1 1 0 0 0 0 2h14a1 1 0 0 0 0-2H7zm-4 5a1 1 0 0 0-1 1 1 1 0 0 0 1 1 1 1 0 0 0 1-1 1 1 0 0 0-1-1zm4 0a1 1 0 0 0 0 2h14a1 1 0 0 0 0-2H7z"/>
    </symbol>
    <symbol id="wysi-ol" viewBox="0 0 24 24">
      <path d="M4 5c-.25 0-.5.17-.5.5v3c0 .67 1 .67 1 0v-3c0-.33-.25-.5-.5-.5zm4.5 1c-1.33 0-1.33 2 0 2h12c1.33 0 1.33-2 0-2zm-6 5.5h.75c0-.43.34-.75.75-.75.4 0 .75.28.75.75L2.5 13.25V14h3v-.75H3.75L5.5 12v-.5c0-.9-.73-1.49-1.5-1.5-.77 0-1.5.59-1.5 1.5zm6-.5c-1.33 0-1.33 2 0 2h12c1.33 0 1.33-2 0-2zM4 15c-.83 0-1.5.63-1.5 1.25h.75c0-.28.34-.5.75-.5s.75.22.75.5-.34.5-.75.5v.5c.41 0 .75.22.75.5s-.34.5-.75.5-.75-.22-.75-.5H2.5c0 .62.67 1.25 1.5 1.25s1.5-.5 1.5-1.12c0-.34-.2-.66-.56-.88.35-.2.56-.53.56-.87 0-.62-.67-1.12-1.5-1.12zm4.5 1c-1.33 0-1.33 2 0 2h12c1.33 0 1.33-2 0-2z"/>
    </symbol>
    <symbol id="wysi-link" viewBox="0 0 24 24">
      <path d="M8,12a1,1,0,0,0,1,1h6a1,1,0,0,0,0-2H9A1,1,0,0,0,8,12Zm2,3H7A3,3,0,0,1,7,9h3a1,1,0,0,0,0-2H7A5,5,0,0,0,7,17h3a1,1,0,0,0,0-2Zm7-8H14a1,1,0,0,0,0,2h3a3,3,0,0,1,0,6H14a1,1,0,0,0,0,2h3A5,5,0,0,0,17,7Z"/>
    </symbol>
    <symbol id="wysi-quote" viewBox="0 0 24 24">
      <path d="m9 6c-2.2 0-4 1.96-4 4.36v6c0 0.903 0.672 1.64 1.5 1.64h3c0.828 0 1.5-0.733 1.5-1.64v-3.27c0-0.903-0.672-1.64-1.5-1.64h-1.75c-0.414 0-0.75-0.367-0.75-0.818v-0.273c0-1.2 0.899-2.18 2-2.18h0.5c0.274 0 0.5-0.246 0.5-0.545v-1.09c0-0.298-0.226-0.545-0.5-0.545zm8 0c-2.2 0-4 1.96-4 4.36v6c0 0.903 0.672 1.64 1.5 1.64h3c0.828 0 1.5-0.733 1.5-1.64v-3.27c0-0.903-0.672-1.64-1.5-1.64h-1.75c-0.414 0-0.75-0.367-0.75-0.818v-0.273c0-1.2 0.899-2.18 2-2.18h0.5c0.274 0 0.5-0.246 0.5-0.545v-1.09c0-0.298-0.226-0.545-0.5-0.545z"/>
    </symbol>
    <symbol id="wysi-hr" viewBox="0 0 24 24">
      <path d="m20 11h-16c-1.33 0-1.33 2 0 2 0 0 16-0.018 16 0 1.33 0 1.33-2 0-2z"/>
    </symbol>
    <symbol id="wysi-removeFormat" viewBox="0 0 24 24">
      <path d="M7 6C5.67 6 5.67 8 7 8h3l-2 7c0 .02 2 0 2 0l2-7h3c1.33 0 1.33-2 0-2H7zm7.06 7c-.79-.04-1.49.98-.75 1.72l.78.78-.78.79c-.94.93.47 2.35 1.4 1.4l.79-.78.78.79c.94.93 2.35-.47 1.41-1.41l-.78-.79.78-.78c.94-.94-.47-2.35-1.4-1.41l-.8.79-.77-.79a.99.99 0 0 0-.66-.3zM7 16c-1.33 0-1.33 2 0 2 .02-.02 4 0 4 0 1.33 0 1.33-2 0-2H7z"/>
    </symbol>
    <symbol id="wysi-delete" viewBox="0 0 24 24">
      <path d="M10,18a1,1,0,0,0,1-1V11a1,1,0,0,0-2,0v6A1,1,0,0,0,10,18ZM20,6H16V5a3,3,0,0,0-3-3H11A3,3,0,0,0,8,5V6H4A1,1,0,0,0,4,8H5V19a3,3,0,0,0,3,3h8a3,3,0,0,0,3-3V8h1a1,1,0,0,0,0-2ZM10,5a1,1,0,0,1,1-1h2a1,1,0,0,1,1,1V6H10Zm7,14a1,1,0,0,1-1,1H8a1,1,0,0,1-1-1V8H17Zm-3-1a1,1,0,0,0,1-1V11a1,1,0,0,0-2,0v6A1,1,0,0,0,14,18Z"/>
    </symbol>
    <symbol id="wysi-autoFormat" viewBox="0 0 24 24">
      <path d="M9.24207 13.6332C9.3924 13.4826 9.64745 13.6099 9.61753 13.8206L9.44154 15.0569C9.40295 15.3287 9.42821 15.6058 9.51531 15.8662C9.60241 16.1266 9.74896 16.3631 9.94334 16.557L10.8268 17.4387C10.9774 17.5891 10.8501 17.8441 10.6394 17.8142L9.40312 17.6382C9.1313 17.5996 8.85422 17.6249 8.59386 17.712C8.33349 17.7991 8.09699 17.9456 7.9031 18.14L7.02133 19.0235C6.98861 19.0566 6.94629 19.0785 6.90039 19.0861C6.85449 19.0937 6.80737 19.0866 6.76574 19.0658C6.72412 19.045 6.69012 19.0116 6.66859 18.9704C6.64706 18.9292 6.63911 18.8822 6.64586 18.8361L6.82186 17.5998C6.86047 17.3281 6.83528 17.0511 6.74827 16.7907C6.66127 16.5304 6.51485 16.2939 6.3206 16.1L5.43659 15.218C5.40352 15.1853 5.38162 15.1429 5.37403 15.097C5.36643 15.0511 5.37353 15.004 5.3943 14.9624C5.41507 14.9208 5.44846 14.8868 5.4897 14.8652C5.53093 14.8437 5.57792 14.8358 5.62395 14.8425L6.86027 15.0185C7.13201 15.0571 7.40901 15.0319 7.66932 14.9449C7.92963 14.8579 8.16611 14.7115 8.36003 14.5172L9.24207 13.6332ZM13.8229 4.57726C13.8505 4.56499 13.8813 4.56173 13.9108 4.56793C13.9404 4.57413 13.9672 4.58949 13.9875 4.61182C14.0079 4.63415 14.0206 4.66232 14.024 4.69232C14.0274 4.72232 14.0213 4.75263 14.0065 4.77894L13.6101 5.48601C13.4336 5.80145 13.4157 6.18105 13.5617 6.51168L13.8899 7.25288C13.9022 7.28047 13.9055 7.31122 13.8993 7.34077C13.8931 7.37032 13.8777 7.39716 13.8554 7.41748C13.833 7.4378 13.8049 7.45057 13.7749 7.45397C13.7449 7.45737 13.7146 7.45123 13.6883 7.43642L12.9812 7.04001C12.8257 6.95287 12.6521 6.90313 12.4741 6.89475C12.2961 6.88636 12.1185 6.91955 11.9555 6.99169L11.2144 7.31989C11.1868 7.33216 11.156 7.33542 11.1265 7.32922C11.0969 7.32302 11.0701 7.30766 11.0498 7.28533C11.0294 7.263 11.0167 7.23483 11.0133 7.20483C11.0099 7.17483 11.016 7.14452 11.0308 7.11821L11.4272 6.41114C11.5144 6.25567 11.5641 6.08204 11.5725 5.90401C11.5809 5.72598 11.5477 5.54845 11.4755 5.38547L11.1474 4.64427C11.1351 4.61668 11.1318 4.58593 11.138 4.55638C11.1442 4.52683 11.1596 4.49999 11.1819 4.47967C11.2042 4.45935 11.2324 4.44658 11.2624 4.44318C11.2924 4.43979 11.3227 4.44593 11.349 4.46074L12.0561 4.85715C12.2116 4.94429 12.3852 4.99402 12.5632 5.00241C12.7412 5.01079 12.9188 4.9776 13.0817 4.90546L13.8229 4.57726ZM5.87908 7.79045C5.88874 7.76074 5.90741 7.73479 5.9325 7.71618C5.95759 7.69758 5.98785 7.68726 6.01908 7.68665C6.05031 7.68605 6.08095 7.69518 6.10674 7.7128C6.13254 7.73041 6.1522 7.75562 6.163 7.78493L6.44594 8.58177C6.57207 8.93798 6.85835 9.21334 7.21919 9.32553L8.02641 9.57728C8.05611 9.58694 8.08207 9.60561 8.10067 9.6307C8.11927 9.65579 8.12959 9.68605 8.1302 9.71728C8.13081 9.74851 8.12167 9.77915 8.10406 9.80494C8.08645 9.83074 8.06124 9.8504 8.03193 9.86121L7.23511 10.1441C7.05956 10.2064 6.90094 10.3086 6.77184 10.4429C6.64273 10.5771 6.54669 10.7396 6.49135 10.9174L6.2396 11.7246C6.22995 11.7543 6.21128 11.7803 6.18619 11.7989C6.1611 11.8175 6.13083 11.8278 6.09961 11.8284C6.06838 11.829 6.03774 11.8199 6.01195 11.8023C5.98615 11.7847 5.96649 11.7595 5.95568 11.7302L5.67275 10.9333C5.61054 10.7578 5.50826 10.5992 5.37403 10.47C5.2398 10.3409 5.07733 10.2449 4.8995 10.1896L4.09331 9.93779C4.06361 9.92813 4.03765 9.90946 4.01905 9.88437C4.00045 9.85928 3.99013 9.82902 3.98952 9.79779C3.98891 9.76656 3.99805 9.73592 4.01566 9.71012C4.03327 9.68433 4.05848 9.66466 4.08779 9.65386L4.88462 9.37092C5.24083 9.24479 5.51618 8.95851 5.62837 8.59766L5.87908 7.79045Z"/>
      <path d="M11.2416 9.3966C12.0824 8.80382 13.2533 8.93276 13.9427 9.7257L19.6224 16.2599L19.7347 16.4025L19.7425 16.4132C20.3351 17.2538 20.2068 18.4239 19.4144 19.1134C18.6215 19.8027 17.4439 19.7674 16.6937 19.0636L16.5492 18.9142L10.8783 12.3898C10.1428 11.5437 10.2325 10.26 11.0785 9.52453L11.2416 9.3966ZM13.9252 13.5821L17.6947 17.9181L17.7709 17.9894C17.9602 18.1341 18.2306 18.1299 18.4173 17.9679C18.6306 17.7821 18.6545 17.4588 18.4691 17.2452L14.6996 12.9083L13.9252 13.5821ZM12.7982 10.7208C12.6127 10.5074 12.2875 10.4846 12.0736 10.67C11.8603 10.8559 11.8381 11.1811 12.0238 11.3946L12.93 12.4376L13.7045 11.7638L12.7982 10.7208Z"/>
    </symbol>
    <symbol id="wysi-markdownExport" viewBox="0 0 24 24">
      <path fill-rule="evenodd" clip-rule="evenodd" d="M1 8.33317C1 6.30813 2.64162 4.6665 4.66667 4.6665H19.3333C21.3583 4.6665 23 6.30813 23 8.33317V15.6665C23 17.6915 21.3583 19.3332 19.3333 19.3332H4.66667C2.64162 19.3332 1 17.6915 1 15.6665V8.33317ZM4.66667 6.49984C3.65414 6.49984 2.83333 7.32065 2.83333 8.33317V15.6665C2.83333 16.6791 3.65414 17.4998 4.66667 17.4998H19.3333C20.3459 17.4998 21.1667 16.6791 21.1667 15.6665V8.33317C21.1667 7.32065 20.3459 6.49984 19.3333 6.49984H4.66667ZM6.21012 8.38021C6.58443 8.25544 6.9966 8.38419 7.23333 8.69984L9.25 11.3887L11.2667 8.69984C11.5034 8.38419 11.9156 8.25544 12.2899 8.38021C12.6642 8.50498 12.9167 8.85528 12.9167 9.24984V14.7498C12.9167 15.2561 12.5063 15.6665 12 15.6665C11.4937 15.6665 11.0833 15.2561 11.0833 14.7498V11.9998L9.98333 13.4665C9.81022 13.6973 9.53853 13.8332 9.25 13.8332C8.96147 13.8332 8.68978 13.6973 8.51667 13.4665L7.41667 11.9998V14.7498C7.41667 15.2561 7.00626 15.6665 6.5 15.6665C5.99374 15.6665 5.58333 15.2561 5.58333 14.7498V9.24984C5.58333 8.85528 5.83581 8.50498 6.21012 8.38021ZM17.5 9.24984C17.5 8.74358 17.0896 8.33317 16.5833 8.33317C16.0771 8.33317 15.6667 8.74358 15.6667 9.24984V12.5368L15.3982 12.2683C15.0402 11.9104 14.4598 11.9104 14.1018 12.2683C13.7439 12.6263 13.7439 13.2067 14.1018 13.5647L15.9352 15.398C16.2931 15.756 16.8736 15.756 17.2315 15.398L19.0648 13.5647C19.4228 13.2067 19.4228 12.6263 19.0648 12.2683C18.7069 11.9104 18.1265 11.9104 17.7685 12.2683L17.5 12.5368V9.24984Z"/>
    </symbol>
  </defs>
</svg>
