<svg id="wysi-svg-icons" xmlns="http://www.w3.org/2000/svg">
  <defs>
    <symbol id="wysi-highlight" viewBox="0 0 24 24">
      <path d="M14.962 6.1H17.172V18H14.962V6.1ZM8.808 18H6.598V6.1H8.808V18ZM15.132 12.9H8.621V11.013H15.132V12.9Z"/>
    </symbol>
    <symbol id="wysi-bold" viewBox="0 0 24 24">
      <path d="M16.5,9.5A3.5,3.5,0,0,0,13,6H8.5a1,1,0,0,0-1,1V17a1,1,0,0,0,1,1H13a3.49,3.49,0,0,0,2.44-6A3.5,3.5,0,0,0,16.5,9.5ZM13,16H9.5V13H13a1.5,1.5,0,0,1,0,3Zm0-5H9.5V8H13a1.5,1.5,0,0,1,0,3Z"/>
    </symbol>
    <symbol id="wysi-italic" viewBox="0 0 24 24">
      <path d="M17,6H11a1,1,0,0,0,0,2h1.52l-3.2,8H7a1,1,0,0,0,0,2h6a1,1,0,0,0,0-2H11.48l3.2-8H17a1,1,0,0,0,0-2Z"/>
    </symbol>
    <symbol id="wysi-underline" viewBox="0 0 24 24">
      <path d="M12,15.5a5,5,0,0,0,5-5v-5a1,1,0,0,0-2,0v5a3,3,0,0,1-6,0v-5a1,1,0,0,0-2,0v5A5,5,0,0,0,12,15.5Zm5,2H7a1,1,0,0,0,0,2H17a1,1,0,0,0,0-2Z"/>
    </symbol>
    <symbol id="wysi-strike" viewBox="0 0 24 24">
      <path d="M12 6C9.33 6 7.5 7.34 7.5 9.5c0 .58.12 1.07.35 1.5H13c-1.49-.34-3.49-.48-3.5-1.5 0-1.03 1.08-1.75 2.5-1.75s2.5.83 2.5 1.75h2C16.5 7.4 14.67 6 12 6zm-5.5 6c-.67 0-.67 1 0 1h4.35c.5.17 1.04.34 1.65.5.58.15 1.75.23 1.75 1s-.66 1.75-2.25 1.75-2.5-1.01-2.5-1.75h-2c0 1.64 1.33 3.5 4.5 3.5s4.5-2.08 4.5-3.5c0-.58-.05-1.07-.2-1.5h1.2c.67 0 .67-1 0-1z"/>
    </symbol>
    <symbol id="wysi-ul" viewBox="0 0 24 24">
      <path d="M3 6a1 1 0 0 0-1 1 1 1 0 0 0 1 1 1 1 0 0 0 1-1 1 1 0 0 0-1-1zm4 0a1 1 0 0 0 0 2h14a1 1 0 0 0 0-2H7zm-4 5a1 1 0 0 0-1 1 1 1 0 0 0 1 1 1 1 0 0 0 1-1 1 1 0 0 0-1-1zm4 0a1 1 0 0 0 0 2h14a1 1 0 0 0 0-2H7zm-4 5a1 1 0 0 0-1 1 1 1 0 0 0 1 1 1 1 0 0 0 1-1 1 1 0 0 0-1-1zm4 0a1 1 0 0 0 0 2h14a1 1 0 0 0 0-2H7z"/>
    </symbol>
    <symbol id="wysi-ol" viewBox="0 0 24 24">
      <path d="M4 5c-.25 0-.5.17-.5.5v3c0 .67 1 .67 1 0v-3c0-.33-.25-.5-.5-.5zm4.5 1c-1.33 0-1.33 2 0 2h12c1.33 0 1.33-2 0-2zm-6 5.5h.75c0-.43.34-.75.75-.75.4 0 .75.28.75.75L2.5 13.25V14h3v-.75H3.75L5.5 12v-.5c0-.9-.73-1.49-1.5-1.5-.77 0-1.5.59-1.5 1.5zm6-.5c-1.33 0-1.33 2 0 2h12c1.33 0 1.33-2 0-2zM4 15c-.83 0-1.5.63-1.5 1.25h.75c0-.28.34-.5.75-.5s.75.22.75.5-.34.5-.75.5v.5c.41 0 .75.22.75.5s-.34.5-.75.5-.75-.22-.75-.5H2.5c0 .62.67 1.25 1.5 1.25s1.5-.5 1.5-1.12c0-.34-.2-.66-.56-.88.35-.2.56-.53.56-.87 0-.62-.67-1.12-1.5-1.12zm4.5 1c-1.33 0-1.33 2 0 2h12c1.33 0 1.33-2 0-2z"/>
    </symbol>
    <symbol id="wysi-link" viewBox="0 0 24 24">
      <path d="M8,12a1,1,0,0,0,1,1h6a1,1,0,0,0,0-2H9A1,1,0,0,0,8,12Zm2,3H7A3,3,0,0,1,7,9h3a1,1,0,0,0,0-2H7A5,5,0,0,0,7,17h3a1,1,0,0,0,0-2Zm7-8H14a1,1,0,0,0,0,2h3a3,3,0,0,1,0,6H14a1,1,0,0,0,0,2h3A5,5,0,0,0,17,7Z"/>
    </symbol>
    <symbol id="wysi-quote" viewBox="0 0 24 24">
      <path d="m9 6c-2.2 0-4 1.96-4 4.36v6c0 0.903 0.672 1.64 1.5 1.64h3c0.828 0 1.5-0.733 1.5-1.64v-3.27c0-0.903-0.672-1.64-1.5-1.64h-1.75c-0.414 0-0.75-0.367-0.75-0.818v-0.273c0-1.2 0.899-2.18 2-2.18h0.5c0.274 0 0.5-0.246 0.5-0.545v-1.09c0-0.298-0.226-0.545-0.5-0.545zm8 0c-2.2 0-4 1.96-4 4.36v6c0 0.903 0.672 1.64 1.5 1.64h3c0.828 0 1.5-0.733 1.5-1.64v-3.27c0-0.903-0.672-1.64-1.5-1.64h-1.75c-0.414 0-0.75-0.367-0.75-0.818v-0.273c0-1.2 0.899-2.18 2-2.18h0.5c0.274 0 0.5-0.246 0.5-0.545v-1.09c0-0.298-0.226-0.545-0.5-0.545z"/>
    </symbol>
    <symbol id="wysi-hr" viewBox="0 0 24 24">
      <path d="m20 11h-16c-1.33 0-1.33 2 0 2 0 0 16-0.018 16 0 1.33 0 1.33-2 0-2z"/>
    </symbol>
    <symbol id="wysi-removeFormat" viewBox="0 0 24 24">
      <path d="M7 6C5.67 6 5.67 8 7 8h3l-2 7c0 .02 2 0 2 0l2-7h3c1.33 0 1.33-2 0-2H7zm7.06 7c-.79-.04-1.49.98-.75 1.72l.78.78-.78.79c-.94.93.47 2.35 1.4 1.4l.79-.78.78.79c.94.93 2.35-.47 1.41-1.41l-.78-.79.78-.78c.94-.94-.47-2.35-1.4-1.41l-.8.79-.77-.79a.99.99 0 0 0-.66-.3zM7 16c-1.33 0-1.33 2 0 2 .02-.02 4 0 4 0 1.33 0 1.33-2 0-2H7z"/>
    </symbol>
    <symbol id="wysi-delete" viewBox="0 0 24 24">
      <path d="M10,18a1,1,0,0,0,1-1V11a1,1,0,0,0-2,0v6A1,1,0,0,0,10,18ZM20,6H16V5a3,3,0,0,0-3-3H11A3,3,0,0,0,8,5V6H4A1,1,0,0,0,4,8H5V19a3,3,0,0,0,3,3h8a3,3,0,0,0,3-3V8h1a1,1,0,0,0,0-2ZM10,5a1,1,0,0,1,1-1h2a1,1,0,0,1,1,1V6H10Zm7,14a1,1,0,0,1-1,1H8a1,1,0,0,1-1-1V8H17Zm-3-1a1,1,0,0,0,1-1V11a1,1,0,0,0-2,0v6A1,1,0,0,0,14,18Z"/>
    </symbol>
  </defs>
</svg>
